<svg xmlns="http://www.w3.org/2000/svg" viewBox="0 0 583.35352 852.58821"><path d="M398.9707,852.58821H54.5a54.56158,54.56158,0,0,1-54.5-54.5V375.97054q0-.32154.03125-.64112C2.96582,345.73079,16.876,316.53206,30.3291,288.29475c5.45215-11.44531,11.09082-23.28027,15.80274-34.78808a6.50093,6.50093,0,0,1,6.01562-4.03662l344,.00049a6.501,6.501,0,0,1,4.83789,2.15869c25.24121,28.125,52.48535,83.66113,52.48535,124.34131V798.08821A54.56158,54.56158,0,0,1,398.9707,852.58821ZM13,376.29622v421.792a41.54716,41.54716,0,0,0,41.5,41.5H398.9707a41.54715,41.54715,0,0,0,41.5-41.5V375.97054c0-36.6045-24.17578-86.57081-47.26758-113.5l-336.72363-.00049c-4.46191,10.52588-9.51269,21.12646-14.41406,31.416C29.14258,321.01106,15.78125,349.056,13,376.29622Z" fill="#00e000"/><path d="M396.14746,262.47054l-344-.00049a6.5,6.5,0,0,1-6.5-6.5V186.67513c0-10.168,8.86426-19.08692,18.96973-19.08692H384.14746a18.52065,18.52065,0,0,1,18.5,18.5v69.88233a6.50085,6.50085,0,0,1-6.5,6.5Zm-337.5-13.00049,331,.00049V186.08821a5.50654,5.50654,0,0,0-5.5-5.5H64.61719a6.52982,6.52982,0,0,0-5.96973,6.08692Z" fill="#00e000"/><path d="M519.85352,728.35286H446.9707a6.5,6.5,0,0,1-6.5-6.5V375.97054a6.5,6.5,0,0,1,6.5-6.5h72.88282a63.57205,63.57205,0,0,1,63.5,63.5V664.85286A63.57205,63.57205,0,0,1,519.85352,728.35286Zm-66.38282-13h66.38282a50.55732,50.55732,0,0,0,50.5-50.5V432.97054a50.55731,50.55731,0,0,0-50.5-50.5H453.4707Z" fill="#00e000"/><path d="M409.32617,821.17854a6.50225,6.50225,0,0,1-5.999-3.99218c-1.78223-4.20459-8.6709-16.24512-16.5918-16.24512H61.32324c-5.0498,0-11.52539,9.42676-13.86914,14.47363a6.5004,6.5004,0,0,1-11.791-5.47656c1.04589-2.25147,10.65136-21.99707,25.66015-21.99707H386.73535c17.92481,0,27.5459,21.74609,28.584,24.22558a6.504,6.504,0,0,1-5.99317,9.01172Z" fill="#00e000"/><path d="M240.61816,220.11751H85.26465a6.5,6.5,0,1,1,0-13H240.61816a6.5,6.5,0,0,1,0,13Z" fill="#00e000"/><path d="M67.7334,402.58821a10.50025,10.50025,0,0,1-7.61524-17.72705l55.58789-58.58838a10.50009,10.50009,0,0,1,15.23438,14.4541L75.35254,399.31526A10.47057,10.47057,0,0,1,67.7334,402.58821Z" fill="#00e000"/><path d="M83.38281,453.32356a9.00025,9.00025,0,0,1-6.39258-15.33545l98.0586-98.9414a9.00016,9.00016,0,0,1,12.78515,12.6709L89.77539,450.659A8.97358,8.97358,0,0,1,83.38281,453.32356Z" fill="#00e000"/><path d="M141.26465,779.58821a6.49768,6.49768,0,0,1-2.42774-.47021L97.48438,762.471a6.50045,6.50045,0,0,1-3.65528-8.32129L376.3584,4.20833A6.49959,6.49959,0,0,1,384.7959.44124l38.29394,14.88232a6.50057,6.50057,0,0,1,3.73828,8.32373L147.35742,775.35335a6.50141,6.50141,0,0,1-6.09277,4.23486ZM108.23535,752.785,137.499,764.56526,412.41113,25.12044,386.209,14.93733Z" fill="#00e000"/><path d="M503.55859,684.23518H440.4707V406.76448h58.08789a50.55731,50.55731,0,0,1,50.5,50.5v181.4707A45.55142,45.55142,0,0,1,503.55859,684.23518Zm-50.08789-13h50.08789a32.53669,32.53669,0,0,0,32.5-32.5V457.26448a37.54226,37.54226,0,0,0-37.5-37.5H453.4707Z" fill="#00e000"/></svg>